<svg width="64" height="64" viewBox="0 0 64 64" fill="none" xmlns="http://www.w3.org/2000/svg">
  <rect width="64" height="64" rx="8" fill="#9747FF"/>
  <path d="M43 22H39V18H37V22H33V24H37V28H39V24H43V22ZM27 32C29.21 32 31 30.21 31 28C31 25.79 29.21 24 27 24C24.79 24 23 25.79 23 28C23 30.21 24.79 32 27 32ZM27 26C28.1 26 29 26.9 29 28C29 29.1 28.1 30 27 30C25.9 30 25 29.1 25 28C25 26.9 25.9 26 27 26ZM27 34C23.33 34 16 35.34 16 39V42H38V39C38 35.34 30.67 34 27 34ZM27 36.02C30.97 36.02 34.8 37.11 35.81 38H18.19C19.2 37.11 23.03 36.02 27 36.02ZM39 42C40.1 42 41 42.9 41 44H17C17 42.9 17.9 42 19 42H39ZM48 34H42V36H48V42H50V36H56V34H50V28H48V34Z" fill="white"/>
</svg>
