<svg width="1761" height="1761" viewBox="0 0 1761 1761" fill="none" xmlns="http://www.w3.org/2000/svg">
<path d="M878.813 387.318C1150.52 387.329 1370.78 607.603 1370.77 879.314C1370.76 1151.03 1150.49 1371.28 878.776 1371.27C607.065 1371.26 386.807 1150.99 386.817 879.277C386.828 607.566 607.102 387.308 878.813 387.318Z" stroke="url(#paint0_linear_1_42262)" stroke-width="0.820895" stroke-dasharray="0.82 0.82"/>
<g opacity="0.13">
<g filter="url(#filter0_d_1_42262)">
<path d="M879.658 1432.44C913.678 1432.44 941.259 1404.86 941.26 1370.84C941.261 1336.82 913.683 1309.24 879.662 1309.24C845.642 1309.23 818.062 1336.81 818.06 1370.83C818.059 1404.85 845.637 1432.43 879.658 1432.44Z" fill="#0C0A10"/>
</g>
<path d="M879.657 1431.61C913.224 1431.61 940.437 1404.4 940.438 1370.84C940.439 1337.27 913.229 1310.06 879.662 1310.06C846.095 1310.05 818.882 1337.27 818.881 1370.83C818.88 1404.4 846.09 1431.61 879.657 1431.61Z" stroke="#6A53FE" stroke-width="0.820895"/>
</g>
<path d="M881.241 1413.98L881.244 1325.28" stroke="#C2B8FF" stroke-opacity="0.11" stroke-width="0.820895"/>
<path d="M836.068 1370.45L924.772 1370.45" stroke="#C2B8FF" stroke-opacity="0.11" stroke-width="0.820895"/>
<g opacity="0.5" filter="url(#filter1_f_1_42262)">
<mask id="mask0_1_42262" style="mask-type:alpha" maskUnits="userSpaceOnUse" x="866" y="1326" width="30" height="89">
<path d="M880.891 1414.8C880.892 1390.31 887.355 1370.45 895.325 1370.45C887.355 1370.45 880.893 1350.6 880.894 1326.1C880.893 1350.6 874.432 1370.45 866.462 1370.45C874.432 1370.45 880.892 1390.31 880.891 1414.8Z" fill="white"/>
</mask>
<g mask="url(#mask0_1_42262)">
<path d="M880.891 1414.8C880.892 1390.31 887.355 1370.45 895.325 1370.45C887.355 1370.45 880.893 1350.6 880.894 1326.1C880.893 1350.6 874.432 1370.45 866.462 1370.45C874.432 1370.45 880.892 1390.31 880.891 1414.8Z" fill="#C2B8FF"/>
</g>
<mask id="mask1_1_42262" style="mask-type:alpha" maskUnits="userSpaceOnUse" x="836" y="1355" width="90" height="30">
<path d="M836.892 1370.1C861.388 1370.1 881.244 1376.56 881.244 1384.53C881.244 1376.56 901.101 1370.1 925.596 1370.1C901.101 1370.1 881.244 1363.64 881.245 1355.67C881.244 1363.64 861.388 1370.1 836.892 1370.1Z" fill="white"/>
</mask>
<g mask="url(#mask1_1_42262)">
<path d="M836.892 1370.1C861.388 1370.1 881.244 1376.56 881.244 1384.53C881.244 1376.56 901.101 1370.1 925.596 1370.1C901.101 1370.1 881.244 1363.64 881.245 1355.67C881.244 1363.64 861.388 1370.1 836.892 1370.1Z" fill="#C2B8FF"/>
</g>
</g>
<g filter="url(#filter2_d_1_42262)">
<mask id="mask2_1_42262" style="mask-type:alpha" maskUnits="userSpaceOnUse" x="860" y="1349" width="43" height="43">
<path d="M881.242 1391.57C881.243 1379.91 890.7 1370.45 902.363 1370.45C890.7 1370.45 881.243 1361 881.244 1349.33C881.243 1361 871.788 1370.45 860.123 1370.45C871.788 1370.45 881.243 1379.91 881.242 1391.57Z" fill="white"/>
</mask>
<g mask="url(#mask2_1_42262)">
<path d="M881.242 1391.57C881.243 1379.91 890.7 1370.45 902.363 1370.45C890.7 1370.45 881.243 1361 881.244 1349.33C881.243 1361 871.788 1370.45 860.123 1370.45C871.788 1370.45 881.243 1379.91 881.242 1391.57Z" fill="white"/>
</g>
</g>
<defs>
<filter id="filter0_d_1_42262" x="806.56" y="1297.74" width="146.199" height="146.197" filterUnits="userSpaceOnUse" color-interpolation-filters="sRGB">
<feFlood flood-opacity="0" result="BackgroundImageFix"/>
<feColorMatrix in="SourceAlpha" type="matrix" values="0 0 0 0 0 0 0 0 0 0 0 0 0 0 0 0 0 0 127 0" result="hardAlpha"/>
<feOffset/>
<feGaussianBlur stdDeviation="2.87313"/>
<feComposite in2="hardAlpha" operator="out"/>
<feColorMatrix type="matrix" values="0 0 0 0 0.415686 0 0 0 0 0.32549 0 0 0 0 0.996078 0 0 0 1 0"/>
<feBlend mode="normal" in2="BackgroundImageFix" result="effect1_dropShadow_1_42262"/>
<feBlend mode="normal" in="SourceGraphic" in2="effect1_dropShadow_1_42262" result="shape"/>
</filter>
<filter id="filter1_f_1_42262" x="831.613" y="1320.82" width="99.2633" height="99.2652" filterUnits="userSpaceOnUse" color-interpolation-filters="sRGB">
<feFlood flood-opacity="0" result="BackgroundImageFix"/>
<feBlend mode="normal" in="SourceGraphic" in2="BackgroundImageFix" result="shape"/>
<feGaussianBlur stdDeviation="1.3193" result="effect1_foregroundBlur_1_42262"/>
</filter>
<filter id="filter2_d_1_42262" x="843.932" y="1333.14" width="74.6211" height="74.625" filterUnits="userSpaceOnUse" color-interpolation-filters="sRGB">
<feFlood flood-opacity="0" result="BackgroundImageFix"/>
<feColorMatrix in="SourceAlpha" type="matrix" values="0 0 0 0 0 0 0 0 0 0 0 0 0 0 0 0 0 0 127 0" result="hardAlpha"/>
<feOffset/>
<feGaussianBlur stdDeviation="4.04584"/>
<feComposite in2="hardAlpha" operator="out"/>
<feColorMatrix type="matrix" values="0 0 0 0 0.415686 0 0 0 0 0.32549 0 0 0 0 0.996078 0 0 0 1 0"/>
<feBlend mode="normal" in2="BackgroundImageFix" result="effect1_dropShadow_1_42262"/>
<feBlend mode="normal" in="SourceGraphic" in2="effect1_dropShadow_1_42262" result="shape"/>
</filter>
<linearGradient id="paint0_linear_1_42262" x1="878.776" y1="1372.09" x2="878.813" y2="386.497" gradientUnits="userSpaceOnUse">
<stop stop-color="#C2B8FF" stop-opacity="0.6"/>
<stop offset="0.109375" stop-color="#C2B8FF" stop-opacity="0.2"/>
</linearGradient>
</defs>
</svg>
